<svg xmlns="http://www.w3.org/2000/svg" width="230" height="32">
  <path fill="#2196f3" d="M13.187.947h5.325l3.37 9.776L25.293.947h5.283l-5.075 13.437 3.744 9.402L37.607.864h6.24L32.033 30.4h-4.95l-5.2-12.397L16.725 30.4h-4.95L.002.864h6.157l8.403 22.922 3.661-9.402L13.189.947zm41.576 29.869c-1.747 0-3.328-.291-4.742-.874a11.194 11.194 0 0 1-3.618-2.453l-.001-.001a11.714 11.714 0 0 1-2.301-3.501l-.029-.077a11.54 11.54 0 0 1-.791-4.236v-.052.003c0-2.08.458-3.979 1.373-5.699a10.83 10.83 0 0 1 3.944-4.091l.049-.027c1.747-1.054 3.8-1.581 6.157-1.581 2.384 0 4.424.528 6.115 1.581a10.311 10.311 0 0 1 3.842 4.062l.027.056a11.226 11.226 0 0 1 1.373 5.414v.081-.004c-.001.367-.016.73-.045 1.088l.003-.048c-.027.333-.056.61-.083.832H49.188c.112 1.109.43 2.08.957 2.912.555.832 1.248 1.47 2.08 1.914a6.224 6.224 0 0 0 2.746.624 6.452 6.452 0 0 0 3.12-.79c.998-.555 1.678-1.275 2.038-2.163l4.784 1.331a9.015 9.015 0 0 1-2.275 2.943l-.013.011a10.931 10.931 0 0 1-3.377 2.014l-.076.025c-1.331.472-2.8.707-4.41.707zm-5.699-13.062h11.398c-.112-1.109-.43-2.066-.957-2.87a5.118 5.118 0 0 0-1.97-1.9l-.027-.013a5.49 5.49 0 0 0-2.713-.708l-.078.001h.004-.054a5.44 5.44 0 0 0-2.718.722l.027-.014a5.536 5.536 0 0 0-1.983 1.89l-.013.023c-.499.805-.805 1.76-.915 2.87zm34.138 13.062c-1.664 0-3.147-.374-4.451-1.123a8.262 8.262 0 0 1-3.057-3.039l-.021-.04V30.4h-4.867V.032h5.574v12.397a8.805 8.805 0 0 1 2.998-3.057l.038-.022c1.277-.749 2.76-1.123 4.451-1.123 1.414 0 2.704.304 3.869.915a8.87 8.87 0 0 1 2.981 2.435l.014.019a11.07 11.07 0 0 1 1.934 3.541l.022.079c.472 1.36.707 2.816.707 4.368s-.262 3.008-.79 4.368a11.548 11.548 0 0 1-2.134 3.633l.012-.014a9.981 9.981 0 0 1-3.184 2.387l-.06.026c-1.219.555-2.565.832-4.035.832zm-1.54-4.742c.888 0 1.693-.166 2.413-.499a6.137 6.137 0 0 0 1.914-1.414 5.689 5.689 0 0 0 1.248-2.038 6.967 6.967 0 0 0 .458-2.496c0-1.192-.25-2.288-.749-3.286a6.07 6.07 0 0 0-1.979-2.442l-.018-.012c-.832-.61-1.816-.915-2.954-.915-.803 0-1.581.194-2.33.582-.72.36-1.373.859-1.955 1.498a7.834 7.834 0 0 0-1.312 2.111l-.019.052v5.2c.174.576.444 1.075.796 1.505l-.006-.008c.389.443.832.832 1.331 1.165a8.84 8.84 0 0 0 1.539.749 5.506 5.506 0 0 0 1.62.25h.002z"/>
  <path d="M116.557 8.602c-.194-.194-.555-.458-1.082-.79a10.335 10.335 0 0 0-1.8-.931l-.072-.025a17.108 17.108 0 0 0-2.371-.79 9.135 9.135 0 0 0-2.62-.374h-.001c-1.552 0-2.731.291-3.536.874-.776.582-1.165 1.4-1.165 2.454 0 .805.25 1.442.749 1.914s1.248.874 2.246 1.206c.998.333 2.246.693 3.744 1.082 1.941.472 3.619 1.054 5.034 1.747 1.442.666 2.538 1.552 3.286 2.662.776 1.082 1.165 2.523 1.165 4.326 0 1.581-.291 2.939-.874 4.077a7.379 7.379 0 0 1-2.387 2.688l-.025.016a10.94 10.94 0 0 1-3.418 1.523l-.077.016c-1.304.304-2.69.458-4.16.458s-2.939-.152-4.41-.458a24.068 24.068 0 0 1-4.404-1.349l.16.059a20.313 20.313 0 0 1-3.807-2.122l.063.042 2.538-4.95c.25.25.693.582 1.331.998a22 22 0 0 0 2.33 1.206c.915.389 1.914.72 2.995.998.986.264 2.118.416 3.286.416h.001c1.552 0 2.731-.264 3.536-.79.805-.528 1.206-1.275 1.206-2.246 0-.888-.32-1.581-.957-2.08-.638-.499-1.525-.928-2.662-1.29-.736-.281-2.08-.707-3.439-1.1l-.596-.148c-1.858-.528-3.411-1.109-4.659-1.747-1.248-.666-2.176-1.498-2.787-2.496-.61-.998-.915-2.246-.915-3.744 0-2.024.472-3.717 1.414-5.075.971-1.387 2.274-2.427 3.91-3.12 1.637-.72 3.453-1.082 5.45-1.082 1.387 0 2.69.152 3.91.458 1.248.304 2.413.707 3.494 1.206s2.053 1.04 2.912 1.622l-2.538 4.659zm21.198 20.675c-.472.194-1.04.416-1.706.666a11.67 11.67 0 0 1-2.089.571l-.075.011c-.684.159-1.47.25-2.278.25h-.011.001c-1.027 0-1.97-.181-2.829-.541a4.664 4.664 0 0 1-2.07-1.689l-.01-.016c-.499-.805-.749-1.845-.749-3.12V12.887h-2.87V8.602h2.87V1.53h5.574v7.072h4.576v4.285h-4.576v10.65c.027.749.235 1.29.624 1.622.387.333.874.499 1.456.499s1.15-.096 1.706-.291c.554-.194.998-.36 1.331-.499l1.123 4.41zm3.943-7.031V8.601h5.574v12.438c0 1.664.304 2.926.915 3.786.61.832 1.512 1.248 2.704 1.248.72 0 1.429-.139 2.122-.416a6.167 6.167 0 0 0 1.955-1.331l.001-.001c.61-.582 1.123-1.317 1.539-2.205V8.6h5.574v15.558c0 .582.098.998.291 1.248.222.25.568.402 1.04.458v4.534c-.555.083-1.026.139-1.414.166-.299.05-.644.081-.996.083h-.002c-.998 0-1.816-.222-2.454-.666-.61-.472-.971-1.109-1.082-1.914l-.125-1.747a9.776 9.776 0 0 1-3.69 3.344l-.054.025c-1.525.749-3.203 1.123-5.034 1.123-2.246 0-3.952-.72-5.117-2.163-1.165-1.47-1.747-3.605-1.747-6.406zm25.84-2.745c0-2.107.416-4.008 1.248-5.699.832-1.72 1.984-3.078 3.453-4.077 1.47-.998 3.149-1.498 5.034-1.498 1.61 0 3.051.402 4.326 1.206 1.304.776 2.317 1.776 3.037 2.995V.031h5.574v24.128c0 .582.098.998.291 1.248.195.25.528.402.998.458v4.534c-.97.194-1.76.291-2.371.291-.998 0-1.83-.25-2.496-.749a2.751 2.751 0 0 1-1.081-1.945l-.001-.011-.083-1.373a8.142 8.142 0 0 1-3.242 3.099l-.044.021a8.903 8.903 0 0 1-4.281 1.082h-.097a9.87 9.87 0 0 1-4.129-.899l.062.025a10.467 10.467 0 0 1-3.279-2.405l-.007-.008a11.628 11.628 0 0 1-2.136-3.498l-.027-.079a12.783 12.783 0 0 1-.749-4.357v-.1.005zm17.097 2.912v-5.2a5.873 5.873 0 0 0-1.333-2.165l.001.001a7.038 7.038 0 0 0-1.997-1.479l-.041-.018a4.778 4.778 0 0 0-2.243-.582h-.003c-.859 0-1.635.181-2.33.541a6.231 6.231 0 0 0-1.824 1.448l-.007.008a6.812 6.812 0 0 0-1.15 2.073l-.014.048a8.317 8.317 0 0 0-.375 2.497v.043-.002c0 .888.139 1.733.416 2.538a6.287 6.287 0 0 0 3.165 3.395l.038.016a5.874 5.874 0 0 0 2.413.499c.528 0 1.054-.083 1.581-.25a7.106 7.106 0 0 0 1.539-.749c.499-.333.93-.72 1.29-1.165.389-.472.68-.971.874-1.498zM196.93 30.4V8.602h5.574V30.4h-5.574zm0-24.835V.032h5.574v5.533h-5.574zm21.918 25.251c-1.774 0-3.37-.291-4.784-.874a10.872 10.872 0 0 1-3.615-2.492l-.004-.004a11.32 11.32 0 0 1-2.22-3.542l-.027-.077a11.555 11.555 0 0 1-.791-4.239v-.049.003c0-1.525.264-2.968.79-4.326a11.376 11.376 0 0 1 2.253-3.627l-.007.008a10.36 10.36 0 0 1 3.55-2.429l.069-.025c1.414-.61 3.01-.915 4.784-.915s3.355.304 4.742.915a10.388 10.388 0 0 1 3.615 2.45l.004.004a10.451 10.451 0 0 1 2.223 3.547l.024.072c.526 1.36.79 2.8.79 4.326v.046c0 1.525-.29 2.982-.818 4.319l.028-.08a10.48 10.48 0 0 1-2.25 3.623l.004-.004a10.405 10.405 0 0 1-3.51 2.47l-.068.026c-1.414.582-3.01.874-4.784.874zm-5.699-11.274c0 1.275.25 2.413.749 3.411a5.885 5.885 0 0 0 2.017 2.274l.022.014c.859.555 1.83.832 2.912.832a5.177 5.177 0 0 0 2.87-.832c.859-.582 1.539-1.36 2.038-2.33.526-.998.79-2.136.79-3.411 0-1.248-.264-2.371-.79-3.37-.499-.998-1.179-1.776-2.038-2.33a5.129 5.129 0 0 0-2.816-.832h-.057.003-.066a5.052 5.052 0 0 0-2.864.885l.017-.011c-.859.555-1.539 1.331-2.038 2.33-.499.971-.749 2.094-.749 3.37z"/>
</svg>
